<svg width="16" height="16" viewBox="0 0 16 16" fill="none" xmlns="http://www.w3.org/2000/svg">
<g id="trash-outline 2">
<path id="Vector" d="M3.78125 3.78125L4.36719 13.1562C4.39502 13.6979 4.78906 14.0938 5.30469 14.0938H10.6953C11.213 14.0938 11.5997 13.6979 11.6328 13.1562L12.2188 3.78125" stroke="#FF6C64" stroke-width="1.2" stroke-linecap="round" stroke-linejoin="round"/>
<g id="Vector_2">
<path d="M2.84375 3.78125H13.1562H2.84375Z" fill="#FF6C64"/>
<path d="M2.84375 3.78125H13.1562" stroke="#FF6C64" stroke-width="1.2" stroke-miterlimit="10" stroke-linecap="round"/>
</g>
<path id="Vector_3" d="M6.125 3.78125V2.60938C6.12473 2.51697 6.14273 2.42541 6.17797 2.33998C6.21321 2.25455 6.26499 2.17694 6.33034 2.11159C6.39568 2.04624 6.4733 1.99446 6.55873 1.95922C6.64416 1.92398 6.73571 1.90598 6.82812 1.90625H9.17188C9.26429 1.90598 9.35584 1.92398 9.44127 1.95922C9.5267 1.99446 9.60432 2.04624 9.66966 2.11159C9.73501 2.17694 9.78679 2.25455 9.82203 2.33998C9.85727 2.42541 9.87527 2.51697 9.875 2.60938V3.78125M8 5.65625V12.2188M5.89062 5.65625L6.125 12.2188M10.1094 5.65625L9.875 12.2188" stroke="#FF6C64" stroke-width="1.2" stroke-linecap="round" stroke-linejoin="round"/>
</g>
</svg>
